# xmcd
# 
# Track frame offsets:
#     182
#     5155
#     17785
#     29742
#     42732
#     64167
#     70767
#     80692
#     102587
#     125552
#     139275
#     151815
#     178840
#     191647
#     208555
#     224620
# 
# Disc length: 3185
# 
# Revision: 6
# Processed by: cddbd v1.5.2PL0 Copyright (c) Steve Scherf et al.
# Submitted via: fre:ac v1.0.17
# 
DISCID=fc0c6f10
DTITLE=Various Artist - Highway Blues
DYEAR=1992
DGENRE=Blues
TTITLE0=Robert Lucas/Luke and The Locomotives - Highway Blues Theme
TTITLE1=Bo Diddley - I'm A Man
TTITLE2=Sonny Boy Williamson - Bring It On Home
TTITLE3=Muddy Waters - I'm Your Hoochie Coochie Man
TTITLE4=Alexis Korners All Stars - Stormy Monday
TTITLE5=Eric Clapton and Jimmy Page - Choker
TTITLE6=Chuck Berry - Worried Life Blues
TTITLE7=Eric Burdon Band - Take It Easy
TTITLE8=Byther Smith - Live On And Sing The Blues
TTITLE9=John Lee Hooker - One Bourbon, One Scotch, One Beer
TTITLE10=Bo Diddley - Bo Diddley
TTITLE11=Howlin' Wolf - The Red Rooster
TTITLE12=Etta James - Spoonful
TTITLE13=Screaming Jay Hawkins - Don't Deceive Me
TTITLE14=B.B. King - Ain't Nobody Home
TTITLE15=Eric Burdon Band - It Hurts Me Too
EXTD=
EXTT0=
EXTT1=
EXTT2=
EXTT3=
EXTT4=
EXTT5=
EXTT6=
EXTT7=
EXTT8=
EXTT9=
EXTT10=
EXTT11=
EXTT12=
EXTT13=
EXTT14=
EXTT15=
PLAYORDER=
